<?xml version="1.0" encoding="UTF-8" standalone="no"?><!-- Generator: Gravit.io --><svg xmlns="http://www.w3.org/2000/svg" xmlns:xlink="http://www.w3.org/1999/xlink" style="isolation:isolate" viewBox="0 0 31 40" width="31pt" height="40pt"><defs><clipPath id="_clipPath_44Cdh1dXWfLSFk2P6aQt0nKWcCcLWYTG"><rect width="31" height="40"/></clipPath></defs><g clip-path="url(#_clipPath_44Cdh1dXWfLSFk2P6aQt0nKWcCcLWYTG)"><path d=" M 29.059 21.253 L 29.059 21.253 L 15.5 32.265 L 15.5 32.265 L 1.941 21.253 L 1.941 21.253 L 0.961 21.253 L 1.941 21.253 L 4.674 21.253 L 4.674 21.253 L 15.5 30.046 L 15.5 30.046 L 15.5 30.046 L 26.326 21.253 L 29.059 21.253 L 29.059 21.253 Z  M 30.039 19.589 L 30.039 0.5 L 0.961 0.5 L 0.961 19.589 L 30.039 19.589 L 30.039 19.589 Z  M 7.027 21.253 L 15.5 28.135 L 15.5 28.135 L 15.5 28.135 L 23.973 21.253 L 7.027 21.253 L 7.027 21.253 Z  M 1.05 26.572 C 1.852 33.839 8.02 39.5 15.5 39.5 C 22.98 39.5 29.148 33.839 29.95 26.572 L 15.5 38.307 L 15.5 38.307 L 15.5 38.307 L 1.05 26.572 L 1.05 26.572 L 1.05 26.572 L 1.05 26.572 Z  M 30.039 24.589 L 30.039 22.369 L 15.5 34.176 L 15.5 34.176 L 15.5 34.176 L 0.961 22.369 L 0.961 24.589 L 15.5 36.396 L 15.5 36.396 L 15.5 36.396 L 30.039 24.589 L 30.039 24.589 L 30.039 24.589 Z  M 1.823 9.342 C 1.815 9.332 1.816 9.322 1.823 9.313 L 1.823 9.342 L 1.823 9.342 L 1.823 9.342 L 1.823 9.342 Z  M 23.119 16.137 C 23.239 16.001 22.98 15.664 22.743 15.662 C 22.333 15.658 22.738 15.319 23.165 15.308 C 23.383 15.303 23.474 15.279 23.633 15.186 C 24.012 14.964 24.494 15.097 24.811 15.51 C 25.237 16.065 25.83 15.651 25.418 15.087 C 25.291 14.914 24.286 14.336 24.054 14.304 C 23.873 14.279 23.129 13.87 22.825 13.629 C 22.583 13.437 22.54 13.536 22.732 13.842 C 22.839 14.012 22.876 14.262 22.819 14.434 C 22.778 14.557 22.696 14.508 22.696 14.361 C 22.696 14.229 22.609 14.084 22.53 14.084 C 22.395 14.084 22.097 13.647 22.131 13.498 C 22.164 13.354 22.089 13.375 22.043 13.522 C 22.01 13.628 21.965 13.68 21.881 13.712 C 21.74 13.766 21.709 13.847 21.76 14.026 C 21.807 14.189 21.753 14.346 21.657 14.326 C 21.501 14.292 21.369 13.678 21.472 13.459 C 21.492 13.414 21.496 13.379 21.481 13.38 C 21.456 13.381 21.338 13.569 21.185 13.851 C 21.116 13.979 21.156 14.129 21.306 14.313 C 21.5 14.55 21.606 14.957 21.474 14.957 C 21.455 14.957 21.405 14.9 21.362 14.832 C 21.307 14.742 21.258 14.709 21.188 14.713 C 21.118 14.717 21.111 14.723 21.164 14.735 C 21.288 14.764 21.487 15.43 21.396 15.513 C 21.336 15.568 21.289 15.654 21.181 15.9 C 21.139 15.996 21.049 16.114 20.981 16.163 C 20.887 16.23 20.857 16.279 20.857 16.369 C 20.857 16.539 20.718 16.686 20.659 16.576 C 20.611 16.488 20.538 16.544 20.41 16.767 C 20.322 16.918 20.233 17.019 20.152 17.058 C 20.084 17.091 20.008 17.155 19.983 17.2 C 19.908 17.339 19.855 17.341 19.834 17.269 Q 19.769 17.315 19.68 17.341 C 19.653 17.409 19.573 17.449 19.454 17.449 C 19.265 17.449 19.118 17.589 19.085 17.802 C 19.058 17.972 18.932 17.9 18.869 17.677 C 18.802 17.445 18.618 17.372 18.434 17.504 C 18.388 17.537 18.222 17.575 18.064 17.589 C 17.892 17.605 17.725 17.647 17.646 17.694 C 17.422 17.829 17.36 17.64 17.542 17.374 C 17.64 17.23 17.63 17.186 17.504 17.216 C 17.444 17.23 17.35 17.252 17.293 17.266 C 17.169 17.295 16.702 17.143 16.636 17.051 C 16.567 16.955 16.413 16.873 16.207 16.822 C 15.933 16.754 15.998 16.531 16.345 16.35 C 16.601 16.218 16.444 16.014 16.061 15.979 C 15.687 15.946 16.053 15.579 16.468 15.572 C 16.708 15.568 16.655 15.387 16.375 15.258 C 16.225 15.189 16.219 15.129 16.353 15.051 C 16.464 14.985 16.859 14.983 16.981 15.047 C 17.057 15.087 17.108 15.082 17.255 15.021 C 17.572 14.89 17.811 14.984 18.189 15.392 C 18.5 15.727 18.548 15.754 18.771 15.72 C 19.277 15.644 19.351 15.075 18.902 14.708 C 18.438 14.328 18.323 14.15 18.221 13.657 C 18.169 13.406 18.125 13.423 18.044 13.721 C 17.915 14.205 17.472 14.527 17.288 14.272 C 17.264 14.239 17.188 14.199 17.12 14.184 C 16.926 14.142 17.132 13.877 17.359 13.877 C 17.475 13.877 17.552 13.788 17.632 13.564 C 17.665 13.473 17.717 13.365 17.749 13.324 C 17.817 13.237 17.748 13.151 17.648 13.196 C 17.618 13.209 17.497 13.23 17.378 13.242 C 17.259 13.255 17.117 13.29 17.064 13.322 C 16.846 13.448 16.824 13.303 17.026 13.08 C 17.183 12.907 17.288 12.838 17.395 12.838 C 17.436 12.838 17.506 12.813 17.55 12.781 C 17.594 12.75 17.75 12.703 17.896 12.676 C 18.197 12.622 18.42 12.491 18.645 12.238 C 18.728 12.146 18.825 12.04 18.862 12.004 C 18.963 11.904 19.09 11.721 19.09 11.675 C 19.09 11.535 18.227 11.802 17.035 12.308 C 16.767 12.422 16.443 12.55 16.314 12.591 C 16.185 12.633 15.902 12.753 15.686 12.858 C 15.47 12.963 15.178 13.083 15.037 13.126 C 14.896 13.168 14.683 13.24 14.563 13.285 C 14.444 13.331 14.257 13.382 14.149 13.399 C 14.04 13.416 13.911 13.453 13.861 13.483 C 13.811 13.512 13.69 13.55 13.591 13.566 C 13.492 13.582 13.379 13.629 13.339 13.67 C 13.26 13.751 13.031 13.834 12.885 13.835 C 12.833 13.835 12.756 13.88 12.709 13.938 C 12.614 14.053 12.379 14.154 12.113 14.193 C 12.014 14.207 11.865 14.263 11.782 14.318 C 11.627 14.42 11.431 14.448 11.392 14.375 C 11.348 14.294 11.267 14.335 11.245 14.448 C 11.183 14.784 11.069 14.957 10.909 14.957 C 10.809 14.957 10.725 15.111 10.725 15.294 C 10.725 15.653 10.512 15.488 10.454 15.084 L 10.428 14.9 L 10.379 15.063 C 10.352 15.152 10.316 15.231 10.298 15.238 C 10.169 15.287 10.129 15.376 10.112 15.646 C 10.088 16.008 10.035 16.023 9.896 15.706 L 9.785 15.454 L 9.683 15.515 C 9.604 15.562 9.575 15.615 9.557 15.744 C 9.485 16.261 9.272 16.534 9.19 16.213 L 9.129 15.974 L 9.076 16.182 C 9.047 16.296 8.978 16.446 8.923 16.514 C 8.868 16.583 8.812 16.685 8.799 16.743 C 8.787 16.8 8.729 16.909 8.671 16.987 L 8.566 17.127 L 8.499 16.865 C 8.43 16.595 8.345 16.488 8.345 16.672 C 8.345 16.817 8.185 17.213 8.076 17.339 C 8.024 17.398 7.973 17.503 7.961 17.572 C 7.94 17.694 7.768 17.769 7.768 17.656 C 7.768 17.634 7.708 17.539 7.636 17.447 L 7.504 17.279 L 7.41 17.384 C 7.357 17.441 7.259 17.509 7.19 17.535 C 6.939 17.63 6.759 17.748 6.652 17.888 C 6.522 18.059 6.479 18.065 6.431 17.919 L 6.431 17.919 C 6.406 17.843 6.406 17.744 6.431 17.609 C 6.485 17.32 6.456 17.26 6.311 17.363 C 6.21 17.435 6.149 17.442 5.812 17.425 C 5.528 17.411 5.388 17.422 5.273 17.468 C 5.09 17.542 4.991 17.549 4.991 17.489 C 4.991 17.403 5.139 17.115 5.208 17.065 C 5.441 16.897 5.225 16.682 4.854 16.711 C 4.394 16.748 4.34 16.649 4.648 16.342 C 4.984 16.009 4.933 15.921 4.396 15.902 C 3.963 15.886 4.173 15.33 4.612 15.33 C 4.643 15.33 4.683 15.284 4.702 15.228 C 4.74 15.112 5.056 14.888 5.238 14.848 C 5.51 14.788 5.87 15.062 5.966 15.401 C 6.044 15.676 6.276 15.728 6.668 15.558 C 7.028 15.401 7.1 15.311 7.187 14.9 C 7.211 14.789 7.278 14.588 7.336 14.455 C 7.466 14.16 7.467 14.134 7.355 14.085 C 7.307 14.064 7.231 13.99 7.186 13.92 L 7.104 13.793 L 7.066 13.928 C 7.017 14.106 6.926 14.105 6.902 13.927 C 6.876 13.729 6.813 13.782 6.813 14.001 C 6.812 14.165 6.802 14.19 6.727 14.202 C 6.651 14.214 6.645 14.204 6.666 14.092 C 6.689 13.972 6.496 13.375 6.451 13.427 C 6.442 13.438 6.425 13.548 6.415 13.67 C 6.389 13.994 6.239 14.083 6.173 13.814 C 6.157 13.746 6.08 13.607 6.003 13.507 L 5.863 13.324 L 5.765 13.414 C 5.623 13.542 5.594 13.527 5.622 13.337 C 5.648 13.162 5.612 13.122 5.53 13.236 C 5.48 13.305 5.305 13.42 5.249 13.42 C 5.231 13.42 5.204 13.368 5.19 13.305 C 5.177 13.243 5.144 13.163 5.117 13.128 C 5.089 13.094 5.062 12.955 5.056 12.82 C 5.046 12.583 4.955 12.42 4.955 12.637 C 4.955 12.737 4.667 13.046 4.574 13.046 C 4.515 13.046 4.488 12.96 4.522 12.88 C 4.547 12.82 4.598 12.298 4.578 12.298 C 4.573 12.298 4.517 12.355 4.454 12.424 C 4.313 12.58 4.263 12.552 4.292 12.337 C 4.308 12.226 4.302 12.174 4.274 12.174 C 4.251 12.174 4.216 12.126 4.197 12.067 C 4.169 11.984 4.145 11.966 4.086 11.988 C 4.036 12.006 3.985 11.988 3.933 11.933 C 3.89 11.887 3.801 11.837 3.736 11.821 C 3.67 11.805 3.574 11.767 3.523 11.736 C 3.471 11.706 3.317 11.657 3.179 11.629 C 2.858 11.563 2.844 11.261 3.161 11.26 C 3.196 11.26 3.216 11.273 3.221 11.291 L 3.221 11.291 Q 3.273 11.28 3.344 11.272 C 3.331 11.264 3.319 11.26 3.309 11.26 C 3.289 11.26 3.279 11.208 3.287 11.144 C 3.299 11.054 3.283 11.018 3.218 10.982 C 2.854 10.781 2.627 10.675 2.395 10.595 C 2.025 10.468 1.962 10.438 1.962 10.388 C 1.962 10.326 2.172 10.185 2.349 10.129 C 2.511 10.077 2.589 9.972 2.465 9.972 C 2.424 9.972 2.38 9.932 2.362 9.879 C 2.319 9.75 2.148 9.614 1.958 9.558 C 1.665 9.47 1.669 9.473 1.68 9.362 C 1.694 9.238 1.889 9.143 2.133 9.142 C 2.189 9.142 2.228 9.146 2.253 9.152 Q 2.313 9.144 2.38 9.138 L 2.38 9.138 C 2.388 9.094 2.418 9.056 2.466 9.038 C 2.582 8.996 2.293 8.435 2.155 8.435 C 2.044 8.435 1.923 8.335 1.933 8.251 C 1.947 8.139 2.437 8.134 2.662 8.244 C 2.777 8.3 2.827 8.304 2.927 8.266 C 3.474 8.058 4.124 8.546 4.269 9.273 C 4.377 9.81 4.459 9.885 5.316 10.22 C 5.563 10.317 5.859 10.441 5.973 10.496 C 6.086 10.551 6.235 10.595 6.304 10.595 C 6.374 10.595 6.471 10.617 6.52 10.643 C 6.72 10.747 7.222 10.559 7.297 10.352 C 7.321 10.285 7.38 10.187 7.428 10.135 C 7.603 9.946 7.469 9.385 7.234 9.325 C 7.181 9.311 7.085 9.282 7.021 9.26 C 6.882 9.211 6.509 9.329 6.477 9.431 C 6.466 9.466 6.411 9.557 6.354 9.633 C 6.297 9.709 6.241 9.826 6.229 9.893 C 6.191 10.113 6.024 9.994 5.976 9.713 C 5.944 9.531 5.903 9.539 5.824 9.745 C 5.764 9.9 5.759 9.951 5.794 10.015 C 5.827 10.078 5.827 10.106 5.789 10.148 C 5.717 10.23 5.552 9.977 5.499 9.701 C 5.475 9.576 5.443 9.474 5.428 9.474 C 5.283 9.474 5.216 8.953 5.318 8.618 C 5.455 8.17 5.455 8.172 5.294 8.201 C 4.218 8.398 3.826 8.101 3.493 6.835 C 3.284 6.04 3.5 5.867 3.894 6.513 C 4.468 7.453 4.855 7.725 5.624 7.729 C 5.951 7.73 6.485 7.964 6.805 8.244 C 7.022 8.435 7.046 8.432 7.047 8.217 C 7.048 7.44 6.203 6.803 5.982 7.414 C 5.873 7.715 5.702 7.725 5.576 7.439 C 5.473 7.203 5.424 7.182 5.424 7.374 C 5.424 7.619 5.185 7.594 5.101 7.34 C 5.084 7.288 4.994 7.162 4.902 7.06 C 4.701 6.838 4.672 6.724 4.65 6.068 C 4.626 5.369 4.65 5.308 4.973 5.267 C 5.112 5.249 5.342 5.204 5.484 5.168 C 5.648 5.125 5.821 5.109 5.958 5.123 L 6.174 5.145 L 6.235 4.962 C 6.318 4.712 6.434 4.651 6.902 4.612 C 7.507 4.561 7.627 4.504 7.986 4.098 C 8.329 3.711 8.357 3.722 8.339 4.24 C 8.33 4.477 8.338 4.656 8.357 4.656 C 8.412 4.656 8.633 4.364 8.698 4.204 C 8.806 3.941 8.969 4.089 9.035 4.509 C 9.045 4.57 9.09 4.599 9.208 4.622 C 9.388 4.658 9.413 4.69 9.447 4.925 C 9.478 5.147 9.507 5.18 9.72 5.243 C 10.022 5.332 10.327 5.781 10.328 6.138 C 10.328 6.397 10.584 6.454 10.761 6.234 C 10.925 6.029 10.944 6.029 11.062 6.226 C 11.312 6.641 11.087 7.245 10.715 7.16 C 10.599 7.134 10.6 7.135 10.79 7.335 C 10.895 7.446 11.024 7.622 11.076 7.726 C 11.316 8.209 11.506 8.357 11.817 8.306 C 12.422 8.207 12.572 8.301 12.248 8.578 C 12.01 8.782 11.987 8.807 11.987 8.855 C 11.987 8.917 12.225 9.02 12.358 9.015 C 12.421 9.012 12.571 9.04 12.69 9.076 C 13.328 9.271 16.104 9.301 17.017 9.123 C 17.314 9.065 17.611 9.017 17.676 9.017 C 17.74 9.017 17.821 9 17.856 8.979 C 17.89 8.958 18.121 8.919 18.369 8.893 C 18.826 8.845 19.01 8.799 19.473 8.62 C 19.679 8.54 19.827 8.517 20.23 8.502 C 20.506 8.492 20.877 8.47 21.056 8.454 C 21.371 8.427 21.392 8.431 21.813 8.595 C 23.677 9.324 25.4 9.336 26.112 8.625 C 26.489 8.248 26.645 7.333 26.365 7.132 C 26.331 7.107 26.302 7.058 26.301 7.024 C 26.291 6.478 24.714 5.957 23.345 6.048 C 23.078 6.066 22.761 6.086 22.642 6.092 C 22.441 6.103 22.252 6.135 21.759 6.241 C 21.65 6.264 21.496 6.287 21.416 6.29 C 21.337 6.294 21.231 6.327 21.182 6.364 C 21.132 6.401 21.042 6.442 20.981 6.455 C 20.92 6.468 20.677 6.601 20.441 6.75 C 19.831 7.136 19.619 7.225 19.188 7.275 C 18.985 7.298 18.792 7.327 18.757 7.339 C 18.529 7.419 18.499 7.246 18.712 7.074 C 19.086 6.77 18.809 6.798 18.326 7.113 C 18.193 7.201 18.044 7.272 17.996 7.272 C 17.948 7.272 17.889 7.3 17.864 7.335 C 17.84 7.369 17.766 7.397 17.7 7.397 C 17.634 7.397 17.569 7.417 17.556 7.442 C 17.541 7.469 17.484 7.477 17.414 7.462 C 17.327 7.443 17.29 7.453 17.275 7.5 C 17.261 7.54 17.207 7.563 17.126 7.563 C 17.056 7.563 16.999 7.584 16.999 7.61 C 16.999 7.641 16.952 7.648 16.859 7.631 C 16.755 7.612 16.707 7.622 16.671 7.671 C 16.637 7.719 16.588 7.731 16.492 7.713 C 16.42 7.7 16.35 7.702 16.336 7.717 C 16.3 7.759 14.611 7.766 14.541 7.725 C 14.508 7.705 14.362 7.679 14.217 7.668 C 13.799 7.635 13.697 7.617 13.605 7.559 C 13.558 7.53 13.483 7.51 13.439 7.516 C 13.394 7.522 13.322 7.498 13.277 7.462 C 13.233 7.426 13.165 7.397 13.127 7.397 C 13.064 7.397 12.959 7.347 12.503 7.1 C 12.42 7.055 12.292 6.963 12.218 6.896 C 12.145 6.829 12.063 6.774 12.036 6.774 C 12.009 6.774 11.987 6.747 11.987 6.713 C 11.987 6.68 11.929 6.585 11.858 6.504 C 10.861 5.356 11.7 3.579 13.439 3.154 C 13.543 3.129 13.707 3.062 13.804 3.006 C 13.901 2.95 14.028 2.897 14.087 2.888 C 14.145 2.88 14.254 2.809 14.329 2.731 C 14.661 2.386 15.118 2.164 15.5 2.163 C 15.62 2.163 15.808 2.135 15.917 2.101 C 16.215 2.01 16.311 2.073 16.185 2.28 C 16.039 2.52 16.154 2.507 16.404 2.255 C 16.877 1.778 16.988 1.743 17.892 1.787 C 18.264 1.805 18.109 2.247 17.73 2.247 C 17.666 2.247 17.576 2.319 17.576 2.369 C 17.576 2.382 17.727 2.394 17.911 2.396 C 18.294 2.4 18.677 2.513 18.876 2.681 C 18.944 2.739 19.069 2.837 19.154 2.9 C 19.489 3.15 19.311 3.211 18.252 3.208 C 18.098 3.207 17.973 3.213 17.973 3.22 C 17.973 3.251 18.265 3.451 18.312 3.451 C 18.38 3.451 18.586 3.652 18.586 3.719 C 18.586 3.777 18.334 3.823 18.009 3.825 C 17.9 3.826 17.697 3.854 17.558 3.888 C 17.419 3.922 17.195 3.962 17.059 3.977 C 16.825 4.002 16.677 3.988 15.643 3.84 C 14.83 3.724 13.698 3.753 13.52 3.893 C 13.481 3.924 13.416 3.95 13.376 3.951 C 13.336 3.952 13.271 3.98 13.233 4.013 C 13.194 4.047 13.112 4.074 13.05 4.074 C 12.975 4.074 12.911 4.109 12.859 4.178 C 12.814 4.238 12.742 4.282 12.689 4.282 C 12.625 4.282 12.588 4.313 12.564 4.386 C 12.54 4.459 12.502 4.489 12.438 4.489 C 12.382 4.489 12.347 4.513 12.347 4.55 C 12.347 4.584 12.317 4.63 12.28 4.652 C 12.233 4.682 12.206 4.761 12.189 4.928 C 12.176 5.057 12.148 5.201 12.126 5.247 C 12.1 5.303 12.099 5.36 12.122 5.419 C 12.142 5.467 12.196 5.608 12.243 5.73 C 12.431 6.225 13.033 6.637 13.834 6.819 C 15.432 7.183 16.729 7.013 18.324 6.233 C 18.547 6.123 18.566 6.047 18.378 6.007 C 18.215 5.972 17.88 5.759 17.851 5.671 C 17.831 5.612 17.849 5.598 18.08 5.504 C 18.109 5.492 18.251 5.465 18.395 5.444 C 18.54 5.423 18.706 5.377 18.764 5.342 C 18.823 5.307 18.959 5.279 19.068 5.279 C 19.177 5.279 19.312 5.258 19.368 5.234 L 19.469 5.188 L 19.352 5.075 C 18.995 4.729 19.997 4.656 20.792 4.969 C 21.488 5.244 21.467 5.241 23.021 5.279 C 24.843 5.323 25.414 5.435 26.116 5.887 C 26.354 6.04 26.915 6.645 26.915 6.748 C 26.915 6.779 26.964 6.875 27.024 6.961 C 27.083 7.047 27.132 7.143 27.132 7.174 C 27.132 7.267 27.194 7.241 27.444 7.044 C 27.662 6.872 27.699 6.857 27.903 6.857 C 28.033 6.857 28.204 6.824 28.316 6.776 C 28.491 6.703 28.506 6.702 28.482 6.766 C 28.468 6.805 28.449 6.879 28.439 6.93 C 28.429 6.982 28.407 7.035 28.39 7.047 C 28.372 7.059 28.358 7.127 28.358 7.197 C 28.358 7.289 28.323 7.36 28.229 7.46 C 28.083 7.614 28.113 7.676 28.292 7.59 C 28.618 7.434 28.646 7.433 28.646 7.578 C 28.646 7.651 28.62 7.754 28.587 7.808 C 28.555 7.861 28.51 8 28.487 8.118 C 28.423 8.454 27.969 8.596 27.69 8.367 C 27.486 8.199 27.342 8.219 27.277 8.425 C 27.247 8.522 27.185 8.631 27.141 8.666 C 27.096 8.702 27.06 8.755 27.06 8.785 C 27.06 8.853 26.847 9.115 26.762 9.153 C 26.727 9.168 26.699 9.208 26.699 9.241 C 26.699 9.275 26.667 9.314 26.627 9.328 C 26.587 9.343 26.539 9.389 26.52 9.43 C 26.501 9.471 26.407 9.528 26.313 9.556 C 26.13 9.611 26.146 9.641 26.386 9.701 C 26.541 9.739 26.485 9.815 26.209 9.939 C 25.923 10.069 25.678 10.085 25.416 9.993 C 25.182 9.912 25.188 9.91 25.22 10.072 C 25.266 10.307 25.225 10.334 24.953 10.251 C 24.812 10.207 24.663 10.188 24.581 10.203 C 24.507 10.217 24.372 10.205 24.283 10.178 C 23.8 10.031 23.629 10.088 23.806 10.335 C 23.88 10.439 23.973 10.6 24.013 10.694 C 24.158 11.036 24.707 11.158 24.968 10.907 C 25.225 10.659 25.308 10.77 25.129 11.121 C 25.014 11.346 24.821 11.468 24.576 11.468 L 24.397 11.468 L 24.535 11.629 C 24.611 11.717 24.707 11.864 24.747 11.954 C 24.928 12.363 25.398 12.38 25.723 11.99 C 25.85 11.838 25.942 11.799 25.942 11.896 C 25.942 11.969 25.693 12.547 25.661 12.549 C 25.647 12.55 25.588 12.595 25.531 12.649 L 25.426 12.747 L 25.567 12.836 C 25.644 12.885 25.772 12.971 25.852 13.027 C 25.959 13.102 26.048 13.128 26.2 13.128 C 26.358 13.129 26.429 13.151 26.507 13.222 C 26.563 13.274 26.687 13.363 26.783 13.42 C 27.129 13.627 27.185 13.708 27.193 14.015 C 27.204 14.484 27.261 14.74 27.379 14.854 C 27.506 14.977 27.601 15.195 27.601 15.365 C 27.601 15.506 27.543 15.572 27.482 15.501 C 27.408 15.416 27.399 15.454 27.402 15.862 C 27.404 16.2 27.418 16.296 27.482 16.42 C 27.598 16.647 27.531 16.735 27.289 16.67 C 27.099 16.619 27.024 16.666 27.024 16.835 C 27.024 17.232 26.449 17.666 26.417 17.293 C 26.411 17.219 26.396 17.158 26.383 17.158 C 26.329 17.158 26.124 17.351 26.073 17.449 C 25.982 17.627 25.769 17.739 25.708 17.642 C 25.661 17.57 25.656 17.571 25.599 17.672 C 25.428 17.972 24.409 17.983 24.434 17.685 C 24.445 17.555 24.442 17.552 24.288 17.545 C 24.202 17.54 24.027 17.506 23.9 17.47 C 23.689 17.409 23.649 17.409 23.45 17.467 C 22.987 17.604 22.905 17.462 23.236 17.097 C 23.513 16.791 23.251 16.53 22.857 16.72 C 22.646 16.822 22.527 16.649 22.69 16.479 C 22.719 16.449 22.747 16.429 22.772 16.419 Q 22.802 16.386 22.843 16.349 C 22.842 16.347 22.841 16.344 22.841 16.34 C 22.841 16.28 22.922 16.203 22.985 16.203 C 23.003 16.203 23.029 16.195 23.054 16.183 Q 23.085 16.16 23.119 16.137 L 23.119 16.137 Z " fill-rule="evenodd" fill="rgb(255,255,255)"/></g></svg>